# xmcd
#
# Track frame offsets: 
#        150
#        33278
#        54876
#        61235
#        70017
#        84861
#        114893
#        138464
#        168416
#        201075
#
# Disc length: 3064 seconds
#
# Revision: 0
# Processed by: cddbd v1.5.1PL0 Copyright (c) Steve Scherf et al.
# Submitted via: ExactAudioCopy v0.90b4
#
DISCID=770bf60a
DTITLE=Jagjit and Chitra - Magic In Movies [CD 2)
DYEAR=2003
DGENRE=Ghazals
TTITLE0=Raat Ghataye Jaadu Khushboo (Tejasvini)
TTITLE1=Yun Zindagi Ki Raah Mein (Saath Saath)
TTITLE2=Tere Khushboo Mein Base Khat (Arth)
TTITLE3=Woh Kagaz Ki Kashti-2 (Aaj)
TTITLE4=Koi Yeh Kaise Bataye (Arth)
TTITLE5=Chithi Na Koi Sandesh (Dushman)
TTITLE6=Phir Aaj Mujhe (Aaj)
TTITLE7=Tere Khayal Ki (Leela)
TTITLE8=Ishq Kya Hai (Tajmahal, A Monument Of Love)
TTITLE9=Jaag Ke Kati Sari Raina (Leela)
EXTD=
EXTT0=
EXTT1=
EXTT2=
EXTT3=
EXTT4=
EXTT5=
EXTT6=
EXTT7=
EXTT8=
EXTT9=
PLAYORDER=
